<svg data-v-423bf9ae="" xmlns="http://www.w3.org/2000/svg" viewBox="0 0 267 90" class="iconLeft"><!----><!----><!----><g data-v-423bf9ae="" id="672b8ce2-f31f-4f34-bb9a-d2f4cc048535" fill="black" transform="matrix(5.16823673248291,0,0,5.16823673248291,108.5666275024414,-3.250335216522217)"><path d="M3.12 6.53L3.12 6.53L3.12 6.53Q2.45 6.63 2.00 6.92L2.00 6.92L2.00 6.92Q1.55 7.21 1.19 7.57L1.19 7.57L1.19 7.57Q0.83 7.94 0.74 8.43L0.74 8.43L0.74 8.43Q0.64 8.93 1.07 9.37L1.07 9.37L1.07 9.37Q1.50 9.80 2.55 10.02L2.55 10.02L2.55 10.02Q3.60 10.24 4.00 10.47L4.00 10.47L4.00 10.47Q4.40 10.70 4.49 11.11L4.49 11.11L4.49 11.11Q4.58 11.53 4.28 11.79L4.28 11.79L4.28 11.79Q3.99 12.05 3.21 11.93L3.21 11.93L3.21 11.93Q2.43 11.81 2.02 11.55L2.02 11.55L2.02 11.55Q1.61 11.29 1.25 10.89L1.25 10.89L1.25 10.89Q0.90 10.50 1.16 10.34L1.16 10.34L1.07 10.25L0.31 10.84L0.31 10.84Q0.18 11.20 0.58 11.70L0.58 11.70L0.58 11.70Q0.97 12.21 1.55 12.52L1.55 12.52L1.55 12.52Q2.13 12.82 2.86 12.80L2.86 12.80L2.86 12.80Q3.58 12.78 4.18 12.34L4.18 12.34L4.18 12.34Q4.79 11.90 5.09 11.35L5.09 11.35L5.09 11.35Q5.39 10.81 5.29 10.36L5.29 10.36L5.29 10.36Q5.20 9.91 4.79 9.56L4.79 9.56L4.79 9.56Q4.38 9.20 3.07 8.95L3.07 8.95L3.07 8.95Q1.76 8.70 1.71 8.09L1.71 8.09L1.71 8.09Q1.65 7.48 2.25 7.31L2.25 7.31L2.25 7.31Q2.84 7.14 3.56 7.45L3.56 7.45L3.56 7.45Q4.27 7.76 3.99 8.13L3.99 8.13L4.08 8.24L4.89 7.40L4.89 7.40Q4.79 6.93 4.28 6.68L4.28 6.68L4.28 6.68Q3.78 6.43 3.12 6.53ZM7.12 3.53L6.17 4.05L6.17 4.05Q6.46 4.42 6.45 5.35L6.45 5.35L6.45 5.35Q6.26 11.53 6.37 12.01L6.37 12.01L6.37 12.01Q6.49 12.50 7.05 12.80L7.05 12.80L8.37 11.96L8.24 11.72L8.24 11.72Q7.74 12.04 7.49 11.35L7.49 11.35L7.49 11.35Q7.24 10.66 7.46 4.89L7.46 4.89L7.46 4.89Q7.43 3.89 7.12 3.53L7.12 3.53ZM12.30 6.60L12.30 6.60L12.30 6.60Q11.24 6.43 10.31 7.26L10.31 7.26L10.31 7.26Q9.38 8.09 9.12 9.20L9.12 9.20L9.12 9.20Q8.86 10.31 9.28 11.26L9.28 11.26L9.28 11.26Q9.70 12.22 10.84 12.62L10.84 12.62L10.84 12.62Q11.77 12.93 12.78 12.18L12.78 12.18L12.78 12.18Q13.78 11.43 13.89 10.84L13.89 10.84L13.69 10.68L13.69 10.68Q12.87 11.85 12.09 11.81L12.09 11.81L12.09 11.81Q11.31 11.76 10.92 11.46L10.92 11.46L10.92 11.46Q10.53 11.15 10.32 10.80L10.32 10.80L12.22 9.54L12.22 9.54Q13.66 8.65 13.51 7.70L13.51 7.70L13.51 7.70Q13.37 6.76 12.30 6.60ZM9.87 8.75L9.87 8.75L9.87 8.75Q9.88 8.12 10.38 7.58L10.38 7.58L10.38 7.58Q10.89 7.04 11.49 7.19L11.49 7.19L11.49 7.19Q12.09 7.34 12.32 8.00L12.32 8.00L12.32 8.00Q12.56 8.67 12.26 9.02L12.26 9.02L12.26 9.02Q11.97 9.37 10.14 10.40L10.14 10.40L10.14 10.40Q9.99 10.04 9.93 9.71L9.93 9.71L9.93 9.71Q9.86 9.37 9.87 8.75ZM16.85 6.45L16.85 6.45Q15.70 7.21 15.23 7.77L15.23 7.77L15.23 7.77Q14.75 8.33 14.56 8.89L14.56 8.89L14.56 8.89Q14.37 9.46 14.50 10.32L14.50 10.32L14.50 10.32Q14.62 11.17 15.49 11.96L15.49 11.96L15.49 11.96Q16.36 12.75 16.88 12.75L16.88 12.75L16.88 12.75Q17.40 12.76 18.51 11.73L18.51 11.73L18.51 11.73Q18.94 11.34 19.34 10.82L19.34 10.82L19.34 10.82Q19.73 10.31 19.84 9.74L19.84 9.74L19.84 9.74Q19.95 9.17 19.78 8.50L19.78 8.50L19.78 8.50Q19.61 7.83 18.80 7.04L18.80 7.04L18.80 7.04Q17.99 6.25 16.85 6.45L16.85 6.45ZM16.49 7.26L16.49 7.26L16.49 7.26Q17.27 7.08 18.21 8.24L18.21 8.24L18.21 8.24Q19.15 9.41 18.95 10.23L18.95 10.23L18.95 10.23Q18.75 11.06 18.09 11.56L18.09 11.56L18.09 11.56Q17.44 12.05 16.70 11.45L16.70 11.45L16.70 11.45Q15.96 10.84 15.52 10.15L15.52 10.15L15.52 10.15Q15.09 9.46 15.39 8.45L15.39 8.45L15.39 8.45Q15.70 7.43 16.49 7.26ZM21.04 6.50L20.36 7.53L20.44 7.68L20.44 7.68Q20.85 7.38 23.66 7.45L23.66 7.45L23.66 7.45Q20.67 11.59 20.19 12.55L20.19 12.55L20.32 12.65L20.32 12.65Q21.14 12.50 22.65 12.68L22.65 12.68L22.65 12.68Q24.17 12.87 24.51 12.49L24.51 12.49L24.51 12.49Q24.86 12.11 25.03 11.31L25.03 11.31L25.03 11.31Q24.31 11.86 21.51 11.44L21.51 11.44L24.77 6.69L24.65 6.50L21.04 6.50ZM30.18 6.38L29.11 6.95L29.11 6.95Q29.62 7.05 29.54 8.03L29.54 8.03L29.54 11.01L29.54 11.01Q28.87 12.35 27.91 12.13L27.91 12.13L27.91 12.13Q26.95 11.92 26.80 10.98L26.80 10.98L26.80 7.56L26.80 7.56Q26.81 6.67 26.29 6.43L26.29 6.43L25.36 6.97L25.36 6.97Q25.83 7.26 25.78 8.49L25.78 8.49L25.77 11.03L25.77 11.03Q25.85 11.86 26.40 12.35L26.40 12.35L26.40 12.35Q26.95 12.84 28.05 12.71L28.05 12.71L28.05 12.71Q29.16 12.58 29.61 11.81L29.61 11.81L29.61 11.81Q29.65 13.16 29.40 13.84L29.40 13.84L29.40 13.84Q29.16 14.52 27.85 14.25L27.85 14.25L27.85 14.25Q26.54 13.99 26.02 13.22L26.02 13.22L25.37 14.03L25.37 14.03Q26.80 15.42 28.01 15.07L28.01 15.07L28.01 15.07Q29.23 14.71 29.88 14.10L29.88 14.10L29.88 14.10Q30.53 13.49 30.54 12.53L30.54 12.53L30.54 7.94L30.54 7.94Q30.68 6.86 30.18 6.38L30.18 6.38Z"></path></g><!----><g data-v-423bf9ae="" id="07c87d2a-e2a2-4d0e-bc9a-c3db173b317b" transform="matrix(2.8125,0,0,2.8125,0,0)" stroke="none" fill="black"><path d="M16 32c8.837 0 16-7.163 16-16S24.837 0 16 0 0 7.163 0 16s7.163 16 16 16zM14.817 6.421h2v8.886h8.887v2H14.817V6.421zm-5.959.437h2v14.283h14.283v2H8.858V6.858z"></path></g><!----></svg>